<svg width="67" height="67" viewBox="0 0 67 67" fill="none" xmlns="http://www.w3.org/2000/svg">
<path d="M0.5 0.5H57.2712L66.5 11.186V66.5H8.76465L0.5 54.3461V0.5Z" fill="#E5CD3D" stroke="url(#paint0_angular_980_9)"/>
<path d="M43.7071 34.7071C44.0976 34.3166 44.0976 33.6834 43.7071 33.2929L37.3431 26.9289C36.9526 26.5384 36.3195 26.5384 35.9289 26.9289C35.5384 27.3195 35.5384 27.9526 35.9289 28.3431L41.5858 34L35.9289 39.6569C35.5384 40.0474 35.5384 40.6805 35.9289 41.0711C36.3195 41.4616 36.9526 41.4616 37.3431 41.0711L43.7071 34.7071ZM23 35H43V33H23V35Z" fill="black"/>
<defs>
<radialGradient id="paint0_angular_980_9" cx="0" cy="0" r="1" gradientUnits="userSpaceOnUse" gradientTransform="translate(34.5 31) rotate(88.2101) scale(32.0156)">
<stop/>
<stop offset="1" stop-color="#666666" stop-opacity="0"/>
</radialGradient>
</defs>
</svg>



